<?xml version="1.0" encoding="UTF-8"?>
<!DOCTYPE svg PUBLIC "-//W3C//DTD SVG 1.1//EN" "http://www.w3.org/Graphics/SVG/1.1/DTD/svg11.dtd">
<svg xmlns="http://www.w3.org/2000/svg" version="1.1" width="240px" height="200px" style="shape-rendering:geometricPrecision; text-rendering:geometricPrecision; image-rendering:optimizeQuality; fill-rule:evenodd; clip-rule:evenodd" xmlns:xlink="http://www.w3.org/1999/xlink">
<g><path style="opacity:0.977" fill="#3a3a3a" d="M 91.5,-0.5 C 92.1667,-0.5 92.8333,-0.5 93.5,-0.5C 93.5,17.1667 93.5,34.8333 93.5,52.5C 159.738,62.187 204.905,98.187 229,160.5C 233.046,171.795 236.546,183.128 239.5,194.5C 239.5,196.167 239.5,197.833 239.5,199.5C 239.167,199.5 238.833,199.5 238.5,199.5C 208.553,158.348 167.886,136.181 116.5,133C 108.841,132.5 101.174,132.334 93.5,132.5C 93.8329,150.512 93.4995,168.512 92.5,186.5C 61.4791,155.812 30.4791,125.146 -0.5,94.5C -0.5,93.5 -0.5,92.5 -0.5,91.5C 30.5,61.1667 61.1667,30.5 91.5,-0.5 Z"/></g>
</svg>
